<svg xmlns="http://www.w3.org/2000/svg" width="100.856" height="29.077" viewBox="0 0 100.856 29.077"><defs><style>.a{fill:#c2c4c5;}</style></defs><g transform="translate(-542.212 -296.984)"><g transform="translate(542.212 303.301)"><g transform="translate(0 0)"><path class="a" d="M546.213,309.775a6.612,6.612,0,0,1,2.919-.656c3.771,0,5.8,3.018,5.8,8.92,0,5.74-2.164,8.462-5.9,8.462a6.617,6.617,0,0,1-4.3-1.607v6.986h-2.525V309.447h1.443l.984,2.066Zm2.3,14.922c2.46,0,3.8-1.705,3.8-6.329v-.82c0-4.788-1.246-6.362-3.706-6.362a6.182,6.182,0,0,0-3.87,1.41v10.691A6.2,6.2,0,0,0,548.509,324.7Z" transform="translate(-542.212 -309.119)"/><path class="a" d="M583.808,309.75h2.525v17.119h-1.443l-1.017-2.033-1.443,1.705a7.415,7.415,0,0,1-3.279.689c-2.722,0-4.558-1.542-4.558-5.411V309.75h2.525v12.462c0,2.3,1.082,3.05,2.656,3.05a5.942,5.942,0,0,0,4.034-1.443Z" transform="translate(-557.737 -309.422)"/><path class="a" d="M620.113,309.874a6.507,6.507,0,0,1,3.083-.755c2.788,0,4.493,1.542,4.493,5.379v12.069h-2.525V314.1c0-2.23-.951-2.919-2.591-2.919a5.912,5.912,0,0,0-3.8,1.476v13.905h-2.525V314.1c0-2.23-1.082-2.919-2.591-2.919a6.193,6.193,0,0,0-3.837,1.41v13.971H607.29V309.447h1.443l.984,2.1,1.476-1.673a6.546,6.546,0,0,1,3.116-.755,5.515,5.515,0,0,1,2.984.755l1.181,1.8Z" transform="translate(-573.413 -309.119)"/><path class="a" d="M663.372,314.661c0-1.934-.557-3.377-2.918-3.377a14.994,14.994,0,0,0-4.985,1.082l-.394-1.968a13.087,13.087,0,0,1,5.477-1.28c3.771,0,5.313,1.935,5.313,6.428v8.363c0,.951.328,1.213,1.115,1.213h.656l.066,1.344a3.091,3.091,0,0,1-1.673.46,3.811,3.811,0,0,1-1.377-.262l-1.148-1.837-1.509,1.673a6.969,6.969,0,0,1-2.755.525c-2.722,0-4.952-1.279-4.952-4.919,0-3.443,1.869-4.821,6.1-5.28l2.984-.262Zm0,3.477-2.82.3c-2.69.3-3.8,1.115-3.8,3.476v.23c0,2.132,1.016,2.984,3.115,2.984a4.269,4.269,0,0,0,3.509-1.607Z" transform="translate(-595.946 -309.119)"/><path class="a" d="M690.777,316.859c-2.624-.722-3.575-1.017-3.575-2.985,0-2.132,1.083-2.689,3.116-2.689a10.292,10.292,0,0,1,3.98.768v-2.061a10.228,10.228,0,0,0-4.079-.774c-3.247,0-5.379,1.607-5.379,4.887,0,3.083,1.706,4.165,4.166,4.821,3.214.885,3.9,1.279,3.9,3.312,0,2.164-1.247,2.919-3.346,2.919a10.788,10.788,0,0,1-4.328-1.017l-.361,1.9a10.277,10.277,0,0,0,4.854,1.083c3.739,0,5.607-2.1,5.607-4.985C695.335,318.859,693.795,317.712,690.777,316.859Z" transform="translate(-610.594 -309.119)"/></g></g><g transform="translate(630.384 296.984)"><path class="a" d="M713.215,308.334h-1.623l3.678-11.35h1.815l3.609,11.35H718.88l-.629-2.161h-4.387Zm2.907-9.186-.485,1.428-1.274,4.112,3.416-.027-1.218-4.085Z" transform="translate(-711.592 -296.984)"/><path class="a" d="M732.611,296.984h1.743v11.35h-1.743Z" transform="translate(-721.669 -296.984)"/></g></g></svg>