<svg xmlns="http://www.w3.org/2000/svg" xmlns:xlink="http://www.w3.org/1999/xlink" width="575.296" height="235.6" viewBox="0 0 575.296 235.6"><defs><style>.a,.b,.j{stroke:#ffd9cc;}.a,.b,.i,.j,.n,.o{stroke-miterlimit:10;}.a,.b{stroke-width:0.944px;}.a{fill:url(#a);}.b,.c,.i,.j,.n,.o,.p,.q{fill:none;}.c,.i,.p,.q{stroke:#fff;}.c,.p,.q{stroke-linecap:round;stroke-linejoin:round;}.c{stroke-width:0.654px;stroke-dasharray:1.184 2.368;}.d{fill:#ffbea8;}.e,.f,.h{fill:#d4ff9c;}.f{opacity:0.37;}.g{fill:#a6acae;}.h{opacity:0.62;}.i,.n{stroke-width:0.511px;}.j{stroke-width:0.999px;}.k{fill:#335dd2;}.l{fill:#0035c7;}.m{fill:url(#b);}.n,.o{stroke:#d4ff9c;}.o{stroke-width:0.267px;}.p{stroke-width:0.191px;stroke-dasharray:0.382 1.147;}.q{stroke-width:0.227px;stroke-dasharray:0.453 1.36;}</style><radialGradient id="a" cx="0.5" cy="0.5" r="0.5" gradientTransform="translate(0)" gradientUnits="objectBoundingBox"><stop offset="0" stop-color="#ebb9a9"/><stop offset="1" stop-color="#bcbec0"/></radialGradient><radialGradient id="b" cx="0.5" cy="0.5" r="0.5" gradientTransform="matrix(1, 0, 0, 1, 0, 0)" xlink:href="#a"/></defs><g transform="translate(-43.317 -111.53)"><circle class="a" cx="102.322" cy="102.322" r="102.322" transform="translate(317.596 142.014)"/><circle class="b" cx="68.715" cy="68.715" r="68.715" transform="translate(351.203 175.621)"/><circle class="b" cx="57.469" cy="57.469" r="57.469" transform="translate(362.449 186.867)"/><circle class="b" cx="78.774" cy="78.774" r="78.774" transform="translate(341.144 165.562)"/><circle class="b" cx="30.482" cy="30.482" r="30.482" transform="translate(389.436 213.854)"/><line class="c" x2="358.897" transform="translate(43.644 243.459)"/><rect class="d" width="50.755" height="13.533" transform="translate(139.016 159.042) rotate(90)"/><rect class="e" width="4.817" height="13.533" transform="translate(139.016 158.996) rotate(90)"/><rect class="f" width="12.026" height="13.533" transform="translate(139.016 163.92) rotate(90)"/><path class="d" d="M376.977,133.65l.085-.034.263-.1,0-.007"/><path class="d" d="M368.843,111.53"/><circle class="e" cx="3.019" cy="3.019" r="3.019" transform="translate(376.971 199.112)"/><circle class="e" cx="3.019" cy="3.019" r="3.019" transform="translate(431.281 282.121)"/><circle class="e" cx="3.019" cy="3.019" r="3.019" transform="translate(374.01 294.019)"/><circle class="e" cx="3.019" cy="3.019" r="3.019" transform="translate(353.768 251.481)"/><circle class="e" cx="3.019" cy="3.019" r="3.019" transform="translate(343.43 231.152)"/><circle class="e" cx="3.019" cy="3.019" r="3.019" transform="translate(451.035 193.182)"/><circle class="e" cx="3.019" cy="3.019" r="3.019" transform="translate(466.059 266.48)"/><circle class="e" cx="3.019" cy="3.019" r="3.019" transform="translate(406.698 181.813)"/><rect class="d" width="54.807" height="14.614" transform="translate(174.863 235.903)"/><rect class="g" width="23.794" height="14.614" transform="translate(174.814 235.903)"/><rect class="h" width="23.794" height="14.614" transform="translate(198.625 235.903)"/><path class="i" d="M404.09,243.485h5.971a.131.131,0,0,0,.13-.116l3.434-28.9a.194.194,0,0,1,.378-.037l.857,2.643a.2.2,0,0,0,.376-.008l1.7-6.124a.249.249,0,0,1,.488.038l3.672,32.388a.131.131,0,0,0,.131.117h2.632c.365,0,1.294,1.513,1.477,1.763a17.319,17.319,0,0,1,1.932,3.353c1.313,3.04,2.16,6.143,4.438,8.656a2.72,2.72,0,0,0,2.606.821,4.389,4.389,0,0,0,3.566-4.177s1.135-8.217,3.125-10.375a.128.128,0,0,1,.1-.041h13.684a.121.121,0,0,0,.112-.062,8.338,8.338,0,0,1,2.777-3.08.1.1,0,0,1,.114,0,9.149,9.149,0,0,1,2.662,3.061.128.128,0,0,0,.117.076h1.4a.2.2,0,0,1,.194.136.48.48,0,0,0,.941-.009l3.275-18.97a1.062,1.062,0,0,1,2.1.036l3.371,24.489a4.3,4.3,0,0,0,.308,1.264.705.705,0,0,0,.927.032.153.153,0,0,0,.047-.079l1.435-6.9s.276-1.554,1.514-1.141a.911.911,0,0,0,1.239,0s2.71-6.776,5.547-8.26c0,0,1.09-.829,1.919,0a10.777,10.777,0,0,1,1.353,3.927s.523,4.577,1.789,5.474a4.163,4.163,0,0,0,2.749,1.159H502.21a.132.132,0,0,0,.1-.051l2.633-3.376.013-.02c.086-.163,1.171-2.118,2.826.015a.156.156,0,0,1,.022.04l6.066,17.39a1.047,1.047,0,0,0,1.945.019.146.146,0,0,0,.019-.04l4.474-15.013a1.8,1.8,0,0,0,.057-.249c.313-1.925,4.1-25.345,4.417-29.992h.564a.027.027,0,0,1,.026.024l1.439,17.436s.4,5.918,5.256,8.2a31.012,31.012,0,0,1,3.15,1.624,20.83,20.83,0,0,1,4.8,3.972,16.457,16.457,0,0,1,2.563,4.342,5.841,5.841,0,0,0,2.232,2.571c.6.372,1.123-.156,1.558-.564,1.069-1,1.413-2.5,2.042-3.77a10.8,10.8,0,0,1,2.449-3.687.124.124,0,0,1,.079-.027h27.482a.129.129,0,0,1,.129.107c.05.282.341,1.132,1.97,2.741a.11.11,0,0,0,.143.018,7.789,7.789,0,0,0,2.2-2.79.121.121,0,0,1,.11-.076h6.358a.119.119,0,0,1,.095.047l1.315,1.585a.132.132,0,0,0,.233-.077l1.467-29.944a.1.1,0,0,1,.189,0l1.766,34.153a.05.05,0,0,0,.1,0l.81-7.419h.248l.248,1.541.129.11h6.827a.13.13,0,0,0,.1-.052l3.555-4.688a.131.131,0,0,1,.208,0l3.7,4.692a.133.133,0,0,0,.1.05h8.18"/><path class="d" d="M354.95,288.6a3.088,3.088,0,0,1,1.7-3.569,7.828,7.828,0,0,0,1.243-.35c1.208-.632,1.181-2.736,2.5-3.089.481-.129,1,.04,1.486-.075,1.312-.313,1.338-2.2,2.221-3.221a4.363,4.363,0,0,1,3.113-1.068c1.631-.114,3.491-.144,4.628,1.031a4.648,4.648,0,0,1,1.069,2.5,5.886,5.886,0,0,1-.193,3.223,2.885,2.885,0,0,1-2.459,1.873c-.654.012-1.344-.257-1.941.013-1.237.559-.812,2.739-2,3.394-.886.488-2.2-.184-2.908.54a2.557,2.557,0,0,0-.439.829c-.72,1.7-3.111,3.141-4.979,2.507C356.526,292.642,355.227,289.989,354.95,288.6Z"/><path class="g" d="M361.46,282.851a2.584,2.584,0,0,0-.206,3.149l-1.1.918c-.795-.725-2.287-1.108-3.134-.4a2.59,2.59,0,0,0,0,3.4c.773.924,2.356,1.392,3.279.619a2.631,2.631,0,0,0,.228-3.179l1.1-.918a2.447,2.447,0,0,0,3.042.332,2.512,2.512,0,0,0,.256-3.1l1.435-1.2a2.449,2.449,0,0,0,3.043.337,2.508,2.508,0,0,0,.092-3.342c-.773-.923-2.373-1.491-3.3-.718a2.781,2.781,0,0,0-.211,3.279l-1.435,1.2A2.529,2.529,0,0,0,361.46,282.851Z"/><path class="d" d="M388.932,240.763a4.927,4.927,0,0,0,2.774-.653c.62-.432,1.045-1.119,1.71-1.477,1.624-.872,3.754.6,5.424-.182.417-.194.763-.515,1.176-.718a3.092,3.092,0,0,1,3.6,1.061,8.8,8.8,0,0,1,.588,7.938,4.322,4.322,0,0,1-4.508,1.991,4.362,4.362,0,0,0-1.376-.221c-1.036.115-1.647,1.267-2.627,1.625-1.366.5-2.8-.694-4.249-.637-.945.037-1.8.6-2.741.695-3.028.3-4.068-3.252-4.446-5.567C383.775,241.647,386.417,240.806,388.932,240.763Z"/><path class="g" d="M394.155,242a2.584,2.584,0,0,0-1.8,2.589l-1.413.22c-.3-1.031-1.385-2.129-2.477-1.959a2.591,2.591,0,0,0-1.76,2.912c.186,1.19,1.3,2.409,2.489,2.223a2.629,2.629,0,0,0,1.837-2.6l1.413-.22a2.447,2.447,0,0,0,2.433,1.856,2.511,2.511,0,0,0,1.819-2.518l1.85-.288a2.448,2.448,0,0,0,2.431,1.86,2.507,2.507,0,0,0,1.8-2.813c-.185-1.19-1.261-2.5-2.451-2.318a2.779,2.779,0,0,0-1.874,2.7l-1.85.288A2.529,2.529,0,0,0,394.155,242Z"/><path class="d" d="M423.12,172.559c.073-.09.15-.177.227-.262a5.182,5.182,0,0,1,3.45-1.786,3.329,3.329,0,0,1,3.234,1.876c.418,1.014.26,2.317,1.067,3.058.378.347.9.494,1.3.819,1,.818.839,2.367,1.339,3.555.6,1.42,2.164,2.346,2.473,3.855a3.4,3.4,0,0,1-1.185,3.065,8.758,8.758,0,0,1-3.013,1.606,3.766,3.766,0,0,1-2.317.291,2.848,2.848,0,0,1-1.425-1.134,5.18,5.18,0,0,1-.9-2.256,3.07,3.07,0,0,0-.34-1.332c-.476-.694-1.342-.66-2.035-.975a1.651,1.651,0,0,1-.807-.716,2.542,2.542,0,0,1,.036-1.772c.175-.676.364-1.694-.4-2.089a3.725,3.725,0,0,1-.78-.344,1.289,1.289,0,0,1-.342-.762,9.381,9.381,0,0,1-.248-3.363A3.049,3.049,0,0,1,423.12,172.559Z"/><path class="g" d="M431.4,178.352a2.583,2.583,0,0,0-2.993-1l-.608-1.294c.9-.583,1.653-1.928,1.183-2.929a2.59,2.59,0,0,0-3.29-.868c-1.09.513-1.946,1.924-1.433,3.014a2.631,2.631,0,0,0,3.016,1.03l.608,1.293a2.449,2.449,0,0,0-1.1,2.858,2.511,2.511,0,0,0,2.928,1.036l.8,1.694a2.449,2.449,0,0,0-1.1,2.857,2.508,2.508,0,0,0,3.208.94c1.09-.512,2.047-1.914,1.534-3a2.779,2.779,0,0,0-3.117-1.039l-.8-1.694A2.528,2.528,0,0,0,431.4,178.352Z"/><g transform="translate(-12.114 -19.285)"><g transform="translate(243.769 190.628)"><line class="j" y1="1.021" x2="42.713" transform="translate(3.284 84.923)"/><line class="j" y1="1.211" x2="28.068" transform="translate(11.202 98.762)"/><line class="j" y1="1.707" x2="28.368" transform="translate(11.27 127.506)"/><line class="j" y1="2.551" x2="42.482" transform="translate(4.768 141.376)"/><line class="j" y1="1.625" x2="42.792" transform="translate(1.931 56.446)"/><line class="j" y1="0.761" x2="28.063" transform="translate(9.316 42.856)"/><line class="j" y1="0.811" x2="27.149" transform="translate(8.659 14.684)"/><line class="j" y1="1.597" x2="42.461"/><line class="j" x2="47.328" transform="translate(0.33 70.88)"/></g><g transform="translate(238.601 174.416)"><path class="j" d="M293.557,348.256s-1.317-29.5-25.812-43.461c0,0-23.705-16.067-24.76-42.143,0,0-3.16-21.861,22.126-42.67,0,0,23.969-16.462,21.335-45.567" transform="translate(-237.487 -174.416)"/><path class="j" d="M246.6,350.322s-3.607-23.444,17.433-41.779c0,0,30.658-23.444,26.449-48.691,0,0,2.7-21.942-29.155-44.184,0,0-21.04-15.629-20.74-39.375" transform="translate(-238.083 -173.925)"/><g transform="translate(0 12.194)"><circle class="k" cx="4.018" cy="4.018" r="4.018" transform="translate(40.787 127.506)"/><circle class="k" cx="4.018" cy="4.018" r="4.018" transform="translate(12.352 99.973)"/><circle class="k" cx="4.018" cy="4.018" r="4.018" transform="translate(4.433 85.944)"/><circle class="k" cx="4.018" cy="4.018" r="4.018" transform="translate(3.081 58.071)"/><circle class="k" cx="4.018" cy="4.018" r="4.018" transform="translate(10.465 43.617)"/><circle class="k" cx="4.018" cy="4.018" r="4.018" transform="translate(36.958 14.684)"/><circle class="k" cx="4.018" cy="4.018" r="4.018" transform="translate(43.61)"/><circle class="k" cx="4.018" cy="4.018" r="4.018" transform="translate(48.399 141.376)"/><circle class="k" cx="5.862" cy="5.862" r="5.862" transform="translate(0 70.476)"/><circle class="k" cx="5.862" cy="5.862" r="5.862" transform="translate(24.524 112.027)"/></g><g transform="translate(1.149 13.79)"><circle class="g" cx="4.018" cy="4.018" r="4.018" transform="translate(4.768 142.331)"/><circle class="g" cx="4.018" cy="4.018" r="4.018" transform="translate(11.27 127.615)"/><circle class="g" cx="4.018" cy="4.018" r="4.018" transform="translate(39.27 97.166)"/><circle class="g" cx="4.018" cy="4.018" r="4.018" transform="translate(45.997 83.326)"/><circle class="g" cx="4.018" cy="4.018" r="4.018" transform="translate(44.723 54.849)"/><circle class="g" cx="4.018" cy="4.018" r="4.018" transform="translate(37.379 41.259)"/><circle class="g" cx="5.862" cy="5.862" r="5.862" transform="translate(20.935 25.441)"/><circle class="g" cx="5.862" cy="5.862" r="5.862" transform="translate(46.104 66.983)"/><circle class="g" cx="4.018" cy="4.018" r="4.018" transform="translate(8.659 13.898)"/><circle class="g" cx="4.018" cy="4.018" r="4.018"/></g></g></g><circle class="l" cx="57.385" cy="57.385" r="57.385" transform="translate(74.663 187.009)"/><circle class="m" cx="53.509" cy="53.509" r="53.509" transform="translate(78.539 190.885)"/><circle class="e" cx="17.481" cy="17.481" r="17.481" transform="translate(114.567 226.913)"/><path class="d" d="M159.571,218.692a4.281,4.281,0,0,0-1.809-5.778l-.006.01-9.137-4.779,0-.011a4.281,4.281,0,0,0-4.01,7.565l0,0,9.18,4.8h0l.03.014.091.047v0A4.286,4.286,0,0,0,159.571,218.692Z"/><path class="d" d="M103.112,228.89a4.281,4.281,0,0,0-5.627,2.234l.011.005L93.409,240.6l-.01,0a4.28,4.28,0,0,0,7.841,3.436l.006,0,4.1-9.511h0l.012-.031.041-.093h0A4.285,4.285,0,0,0,103.112,228.89Z"/><path class="d" d="M155.122,271.928a4.281,4.281,0,0,0-4.993-3.425l0,.012L139.994,270.4l0-.011a4.281,4.281,0,0,0,1.521,8.425v.006l10.185-1.9h0l.033-.007.1-.019v0A4.286,4.286,0,0,0,155.122,271.928Z"/><circle class="n" cx="2.105" cy="2.105" r="2.105" transform="translate(103.747 210.85)"/><circle class="n" cx="2.105" cy="2.105" r="2.105" transform="translate(102.646 254.406)"/><circle class="n" cx="2.105" cy="2.105" r="2.105" transform="translate(112.817 278.304)"/><circle class="n" cx="2.105" cy="2.105" r="2.105" transform="translate(165.379 231.44)"/><circle class="n" cx="2.105" cy="2.105" r="2.105" transform="translate(166.182 259.437)"/><circle class="n" cx="2.105" cy="2.105" r="2.105" transform="translate(129.286 214.15)"/><circle class="o" cx="2.51" cy="2.51" r="2.51" transform="translate(275.066 143.071)"/><circle class="d" cx="8.246" cy="8.246" r="8.246" transform="translate(288.555 263.786)"/><line class="p" y1="11.651" x2="11.651" transform="translate(291.109 266.157)"/><circle class="o" cx="2.11" cy="2.11" r="2.11" transform="translate(300.905 142.501)"/><circle class="o" cx="2.11" cy="2.11" r="2.11" transform="translate(297.286 149.376)"/><circle class="e" cx="2.001" cy="2.001" r="2.001" transform="translate(289.465 156.711)"/><circle class="e" cx="2.001" cy="2.001" r="2.001" transform="translate(308.683 188.51)"/><circle class="e" cx="3.368" cy="3.368" r="3.368" transform="translate(291.107 189.252)"/><circle class="n" cx="3.988" cy="3.988" r="3.988" transform="translate(296.817 169.155)"/><circle class="e" cx="3.988" cy="3.988" r="3.988" transform="translate(297.722 206.501)"/><circle class="d" cx="3.019" cy="3.019" r="3.019" transform="translate(316.1 221.54)"/><circle class="d" cx="3.879" cy="3.879" r="3.879" transform="translate(345.829 201.818)"/><circle class="d" cx="4.742" cy="4.742" r="4.742" transform="translate(286.933 221.218)"/><line class="q" x2="7.609" y2="5.435" transform="translate(287.929 223.311)"/></g></svg>